<svg xmlns="http://www.w3.org/2000/svg" xmlns:xlink="http://www.w3.org/1999/xlink" version="1.1" width="1041px" height="821px" viewBox="-0.5 -0.5 1041 821" content="&lt;mxfile host=&quot;app.gram.ax&quot; modified=&quot;2026-05-12T16:34:25.810Z&quot; agent=&quot;Mozilla/5.0 (Windows NT 10.0; Win64; x64; rv:150.0) Gecko/20100101 Firefox/150.0&quot; etag=&quot;LSIczc-LnJCcGHQ-T2cQ&quot; scale=&quot;1&quot; border=&quot;0&quot; version=&quot;24.3.1&quot; type=&quot;embed&quot;&gt;&lt;diagram id=&quot;0UfPkyyqbAn2JO725Rxe&quot; name=&quot;Page-1&quot;&gt;7VpRc5s4EP41nrl7aAaEwfjRNnavM+ldrslc20cMiqHFiJPl2LlffyshCQGyXadOrr2JM8HSslqtltX3seCBN1vv39K4yt6TFBcD5KT7gRcNEBqNh3DkgsdaMEROLVjRPK1FbiO4zf/BUqjUtnmKNy1FRkjB8qotTEhZ4oS1ZDGlZNdWuydFe9YqXuGe4DaJi770Y56yrJaGaNTIf8P5KlMzu8G4PrOOlbJcySaLU7IzRN584M0oIaxurfczXPDYqbjU4xYHzmrHKC6ZZQBZfuHxAI0iTnAG68a0E7Lh7/FaLnMQOYOJP4jcQejw9rQ+RuIYiuNUtUFnLNo+GOGN8UIc58rs3WNlmB27hsGRbNcDp8PeXJGwPxVHXxvESVaSgqxkEt3+eZ0zrM5GeJPQvGI5Kb97MXqIr9wFiaeGQHsmjkiZ1e25OCK1sFA1JsbZem1Dww1P2TddhXZg6IyVY0g5Bm3XNjWfvYiXsAHrMKCggMyY3pOS58GGPcqkDv7eEnXizUZsuQkouEG1b05CayW/hZVlI/Bl5iBfnYSsW3YHgKyeuS1O8wct8mtjIl/AGPciiNcVnCqXm0rNZVx9UPIjYwLTmPKTHpvx3JC4x0IirSTgG21ZGSBvHvA/21i/nbGtINoC1l0mMkBgpHFE40OzJgSIIzZi8ljkJWx/D8bXa4tciPZ0l8Euuq0AHkCyA/gGWcbWPH1cHkmyhVHp9VIJaC2AngM9kWnTOPm6EvKZjEJJSsxjkxfFTAfGQ94ERWMZM4nyLpJ9Q+9efEAeF/mKb+cE0A1T7jij5Cs2VJ35KJpEcGaNWTxPcya9rEheMoF0Ps8w5woCPHPEP8+dGchc3rtCvkVok43awlrJbcusihaLTmdqn6+AYrgs8VJcN0dfZBPaJWQ/YMrw3hDJa/8WE4gChQ3iyLOeoh0JmaNA9ncNi6GhlGUmg6mBsWSLlbbdkAs0ZMKprqSbJ1LPODRQzTUQ2jdoQuFcF3r9FjxL3HXbKK6HL4zhrkEL8x6sWiFcEZad6RaGpqaLjgMn/T9CamOTyJw2kelpQsUmmrl8OdnTCU5Qcmu4GeV5T027FLXD2nFsZngSteb96bnsJ6GpRHyem6bCozRlUI7JDryfxptME46Nrjo044TeYuRb2SLwXH92hHAUWa73K17IXCXDqwpgi5TIxkZP5ZxvopeRhV9snFPTyPlE9FycMwzanOM6Fs5xbJwTvjDn3EDZdT+5eXcAx5+KXcjEZ1/d7eshkaKTzh3+3IbqmjwiQ8eT7RMVQWgAdYd1zDoIdBaX5csP89s7+BKR1SQ5qaoiT+IOlS16Pno9epkZR10Y6pKo9q5jxIz3RF2WlyITA8gtVmEXsTcSSbjZAt+zA8jbpyQLO5xLVE93SXKbeSGPUpyJ/eOj2N+UFDb4P1GgaHbgnZgmcihyOsQgS5IeJwTi0+eE+nOyxFGkIILmTTlOQnSKiRQvCWNkra0QCojU9QiWlperO1JJEJYCviRHLvAmZkA53CDfYMM+91DCYmYAObBWDiqcpiIKmBiXqwLfNMJpSa7lXtBl3E2cpvW8jlhYQXYT9fCMS+TTNWMWvK/iUjEzTLOlm/wBf8CyvhQq4KMcoTkS0/kDrqlSzLTckGLL8ERfPCuboj6d2ihW894la73nJuPDVeElGLlNyLooNAjZdWxVYOD8F1Xg7ACQm7WdFi56dIF6haOV6syB5tPAet7ANlxLuA+/NL5OvJrLfj1wI3FyQfbnm3DCO1gI3uEN+4MmGXzRmBF6lWx4EiHnnfXMz15ICS9+1OeAlyySXOcMpjzBjGc9mwu86Xxx1rO4hmsDG68iJwxmYwtTdUqOV5y/GM53gN4f/dBP+zwDdU3ott7jm8WYWfA4xtsUXw6pa5LTRd15djro/Gny/vogOr+P8/JjXqZk91eOd+J16P8Ghl/fzZyF5+5RPLc8b9rh5ZTfdPM6oWSQSJii01j/Xa9petjtuuFkFvVJQr/AOTzCOIMG7Vc0T37r8/pu5xvQ3ht+K9oHL4L2DfB+wIV4XLDJ8qqzO9DR3YHLVBSgvI4uSPL1LsvLdtqbKeX0U2ro8D+dleq3G3wk2F7khbLTy+cQ8T+uVyyFA6qw76cjWFIuDIWpmDJT8GW7rm7louCeSUmkRtDbqzhdYaVPKMvIipRxMW+kUHbn7BPXvvJl77MuyHMW7c3Oo9Ex6v9aVsJVNwzx7me9Kug0pkTv0ex1jR1M6Q3Z0qTzgx6I0QorNanH13008W2JTUVuPbR/p2NLbGnuhmOHsYn89iYaep29UTsvR5k/xOkYCsYnDNUr7hkS+0yv8SW3nve69S629dyLbT3n2bZe+Lrzvm/nQbf5nV49uvmxozf/Fw==&lt;/diagram&gt;&lt;/mxfile&gt;"><defs/><g><g><path d="M 280 675 C 280 666.72 333.73 660 400 660 C 431.83 660 462.35 661.58 484.85 664.39 C 507.36 667.21 520 671.02 520 675 L 520 765 C 520 773.28 466.27 780 400 780 C 333.73 780 280 773.28 280 765 Z" fill="#23a2d9" stroke="#0e7dad" stroke-miterlimit="10" pointer-events="all"/><path d="M 520 675 C 520 683.28 466.27 690 400 690 C 333.73 690 280 683.28 280 675" fill="none" stroke="#0e7dad" stroke-miterlimit="10" pointer-events="all"/></g><g><g transform="translate(-0.5 -0.5)"><switch><foreignObject style="overflow: visible; text-align: left;" pointer-events="none" width="100%" height="100%" requiredFeatures="http://www.w3.org/TR/SVG11/feature#Extensibility"><div xmlns="http://www.w3.org/1999/xhtml" style="display: flex; align-items: unsafe center; justify-content: unsafe center; width: 238px; height: 1px; padding-top: 733px; margin-left: 281px;"><div style="box-sizing: border-box; font-size: 0px; text-align: center;" data-drawio-colors="color: #ffffff; "><div style="display: inline-block; font-size: 12px; font-family: Helvetica; color: rgb(255, 255, 255); line-height: 1.2; pointer-events: all; white-space: normal; overflow-wrap: normal;"><font style="font-size: 16px"><b>Хранилище ПО</b></font><div>[База данных: SQLite]</div><br /><div><font style="font-size: 11px"><font color="#E6E6E6">Хранилище результатов и конфигураций тестов</font></font></div></div></div></div></foreignObject><text x="400" y="736" fill="#ffffff" font-family="Helvetica" font-size="12px" text-anchor="middle">Хранилище ПО...</text></switch></g></g><g><ellipse cx="520" cy="40.5" rx="40.5" ry="40.5" fill="#083f75" stroke="#06315c" pointer-events="all"/><path d="M 420 105.3 C 420 82.93 438.13 64.8 460.5 64.8 L 579.5 64.8 C 601.87 64.8 620 82.93 620 105.3 L 620 139.5 C 620 161.87 601.87 180 579.5 180 L 460.5 180 C 438.13 180 420 161.87 420 139.5 Z" fill="#083f75" stroke="#06315c" stroke-miterlimit="10" pointer-events="all"/><ellipse cx="520" cy="40.5" rx="40.5" ry="40.5" fill="#083f75" stroke="#06315c" pointer-events="all"/></g><g><g transform="translate(-0.5 -0.5)"><switch><foreignObject style="overflow: visible; text-align: left;" pointer-events="none" width="100%" height="100%" requiredFeatures="http://www.w3.org/TR/SVG11/feature#Extensibility"><div xmlns="http://www.w3.org/1999/xhtml" style="display: flex; align-items: unsafe center; justify-content: unsafe center; width: 198px; height: 1px; padding-top: 123px; margin-left: 421px;"><div style="box-sizing: border-box; font-size: 0px; text-align: center;" data-drawio-colors="color: #ffffff; "><div style="display: inline-block; font-size: 11px; font-family: Helvetica; color: rgb(255, 255, 255); line-height: 1.2; pointer-events: all; white-space: normal; overflow-wrap: normal;"><font style="font-size: 16px"><b>Исследователь безопасности кода</b></font><div>[Пользователь]</div><br /><div><font style="font-size: 11px"><font color="#cccccc">Анализирует результаты работы инструмента</font></font></div></div></div></div></foreignObject><text x="520" y="126" fill="#ffffff" font-family="Helvetica" font-size="11px" text-anchor="middle">Исследователь безопасности кода...</text></switch></g></g><g><rect x="0" y="220" width="1040" height="600" rx="10" ry="10" fill="none" stroke="#666666" stroke-dasharray="8 4" pointer-events="none"/></g><g><g transform="translate(-0.5 -0.5)"><switch><foreignObject style="overflow: visible; text-align: left;" pointer-events="none" width="100%" height="100%" requiredFeatures="http://www.w3.org/TR/SVG11/feature#Extensibility"><div xmlns="http://www.w3.org/1999/xhtml" style="display: flex; align-items: unsafe flex-end; justify-content: unsafe flex-start; width: 1022px; height: 1px; padding-top: 809px; margin-left: 10px;"><div style="box-sizing: border-box; font-size: 0px; text-align: left;" data-drawio-colors="color: #333333; "><div style="display: inline-block; font-size: 11px; font-family: Helvetica; color: rgb(51, 51, 51); line-height: 1.2; pointer-events: all; white-space: normal; overflow-wrap: normal;"><font style="font-size: 16px"><b><div style="text-align: left">ProofAPI</div></b></font><div style="text-align: left">[Программный продукт]</div></div></div></div></foreignObject><text x="10" y="809" fill="#333333" font-family="Helvetica" font-size="11px">ProofAPI...</text></switch></g></g><g><rect x="400" y="470" width="240" height="120" rx="7.2" ry="7.2" fill="#63bef2" stroke="#2086c9" pointer-events="all"/></g><g><g transform="translate(-0.5 -0.5)"><switch><foreignObject style="overflow: visible; text-align: left;" pointer-events="none" width="100%" height="100%" requiredFeatures="http://www.w3.org/TR/SVG11/feature#Extensibility"><div xmlns="http://www.w3.org/1999/xhtml" style="display: flex; align-items: unsafe center; justify-content: unsafe center; width: 238px; height: 1px; padding-top: 530px; margin-left: 401px;"><div style="box-sizing: border-box; font-size: 0px; text-align: center;" data-drawio-colors="color: #ffffff; "><div style="display: inline-block; font-size: 12px; font-family: Helvetica; color: rgb(255, 255, 255); line-height: 1.2; pointer-events: all; white-space: normal; overflow-wrap: normal;"><font style="font-size: 16px"><b>Модуль управления приложением (МУП)</b></font><div>[Модуль: C#]</div><br /><div><font style="font-size: 11px">TestOrchestrator.cs, ITestOrchestrator.cs</font></div></div></div></div></foreignObject><text x="520" y="534" fill="#ffffff" font-family="Helvetica" font-size="12px" text-anchor="middle">Модуль управления приложением (МУП)...</text></switch></g></g><g><path d="M 400 248 C 400 243.58 403.58 240 408 240 L 632 240 C 636.42 240 640 243.58 640 248 L 640 392 C 640 396.42 636.42 400 632 400 L 408 400 C 403.58 400 400 396.42 400 392 Z" fill="#118acd" stroke="#0e7dad" stroke-miterlimit="10" pointer-events="all"/><path d="M 405 248 C 405 246.34 406.34 245 408 245 L 581 245 C 582.66 245 584 246.34 584 248 L 584 254 C 584 255.66 582.66 257 581 257 L 408 257 C 406.34 257 405 255.66 405 254 Z M 589 248 C 589 246.34 590.34 245 592 245 L 598 245 C 599.66 245 601 246.34 601 248 L 601 254 C 601 255.66 599.66 257 598 257 L 592 257 C 590.34 257 589 255.66 589 254 Z M 606 248 C 606 246.34 607.34 245 609 245 L 615 245 C 616.66 245 618 246.34 618 248 L 618 254 C 618 255.66 616.66 257 615 257 L 609 257 C 607.34 257 606 255.66 606 254 Z M 623 248 C 623 246.34 624.34 245 626 245 L 632 245 C 633.66 245 635 246.34 635 248 L 635 254 C 635 255.66 633.66 257 632 257 L 626 257 C 624.34 257 623 255.66 623 254 Z M 405 270 C 405 265.58 408.58 262 413 262 L 627 262 C 631.42 262 635 265.58 635 270 L 635 387 C 635 391.42 631.42 395 627 395 L 413 395 C 408.58 395 405 391.42 405 387 Z" fill="#23a2d9" stroke="none" pointer-events="all"/></g><g><g transform="translate(-0.5 -0.5)"><switch><foreignObject style="overflow: visible; text-align: left;" pointer-events="none" width="100%" height="100%" requiredFeatures="http://www.w3.org/TR/SVG11/feature#Extensibility"><div xmlns="http://www.w3.org/1999/xhtml" style="display: flex; align-items: unsafe center; justify-content: unsafe center; width: 238px; height: 1px; padding-top: 320px; margin-left: 401px;"><div style="box-sizing: border-box; font-size: 0px; text-align: center;" data-drawio-colors="color: #ffffff; "><div style="display: inline-block; font-size: 12px; font-family: Helvetica; color: rgb(255, 255, 255); line-height: 1.2; pointer-events: all; white-space: normal; overflow-wrap: normal;"><font style="font-size: 16px"><b>Главный интерфейс</b></font><div>[Интерфейс: XAML]</div><br /><div><font style="font-size: 11px"><font color="#E6E6E6">MainWindowViewModel.cs</font></font></div></div></div></div></foreignObject><text x="520" y="324" fill="#ffffff" font-family="Helvetica" font-size="12px" text-anchor="middle">Главный интерфейс...</text></switch></g></g><g><path d="M 520 470 L 520 416.12" fill="none" stroke="#828282" stroke-miterlimit="10" pointer-events="stroke"/><path d="M 520 401.12 L 525 416.12 L 515 416.12 Z" fill="#828282" stroke="#828282" stroke-miterlimit="10" pointer-events="all"/></g><g><path d="M 520 180 L 520 223.88" fill="none" stroke="#828282" stroke-miterlimit="10" pointer-events="stroke"/><path d="M 520 238.88 L 515 223.88 L 525 223.88 Z" fill="#828282" stroke="#828282" stroke-miterlimit="10" pointer-events="all"/></g></g><switch><g requiredFeatures="http://www.w3.org/TR/SVG11/feature#Extensibility"/><a transform="translate(0,-5)" xlink:href="https://www.drawio.com/doc/faq/svg-export-text-problems" target="_blank"><text text-anchor="middle" font-size="10px" x="50%" y="100%">Text is not SVG - cannot display</text></a></switch></svg>